:version 1.10
:name ASF
:units
  mass 1
  length 1
  angle deg
:documentation
  ASF file generated by Kaydara
:root
  axis xyz
  order  tx ty tz rx ry rz
  position 0 0 0
  orientation 0 0 0
:bonedata
  begin
    id 1
    name RightUpLegDummy
    direction -0.718183 -0.695806 0.00816078
    length 4.904
    axis 0 0 0 xyz
  end
  begin
    id 2
    name RightUpLeg
    direction -0.0736652 -0.994202 0.0783343
    length 17.4976
    axis -2.72909 -3.00389 -4.00133 xyz
    dof rx ry rz
  end
  begin
    id 3
    name RightLeg
    direction -0.0389037 -0.994596 -0.0962598
    length 16.5821
    axis 3.95836 -18.5909 -4.46993 xyz
    dof rx ry rz
  end
  begin
    id 4
    name RightFoot
    direction -0.311643 -0.412678 0.855906
    length 3.77069
    axis -1.99483 -18.8351 -3.27644 xyz
    dof rx ry rz
  end
  begin
    id 5
    name RightToes
    direction -0.317852 0.0389852 0.947339
    length 3.85082
    axis -2.00228 -18.1713 -3.25211 xyz
    dof rx ry rz
  end
  begin
    id 6
    name SpineDummy
    direction 8.3039e-015 1 4.44677e-016
    length 4.6813
    axis 0 0 0 xyz
  end
  begin
    id 7
    name Spine
    direction -0.000262373 0.999988 0.00493267
    length 10.1015
    axis -0.00246081 0.00062579 0.0150362 xyz
    dof rx ry rz
  end
  begin
    id 8
    name Spine1
    direction 0 0 0
    length 0
    axis -0.00349562 0.000650293 0.0196666 xyz
    dof rx ry rz
  end
  begin
    id 9
    name HEadDummy
    direction -0.000343232 0.999999 0.00123745
    length 3.43865
    axis -0.00349562 0.000650293 0.0196666 xyz
  end
  begin
    id 10
    name HEad
    direction -0.0461221 0.980933 0.188796
    length 5.12695
    axis -0.00351404 -7.04812 0.0199272 xyz
    dof rx ry rz
  end
  begin
    id 11
    name LeftShoulder1Dummy
    direction 0.998904 -0.0399089 -0.0244534
    length 3.5433
    axis -0.00349562 0.000650293 0.0196666 xyz
  end
  begin
    id 12
    name LeftShoulder1
    direction 0.99951 1.64443e-005 0.0312999
    length 4.05031
    axis -0.00349562 0.000650293 0.0196666 xyz
    dof rx ry rz
  end
  begin
    id 13
    name LeftArm
    direction 0.984791 0.0515299 0.165927
    length 12.9126
    axis -64.823 -10.7743 5.20463 xyz
    dof rx ry rz
  end
  begin
    id 14
    name LeftForeArm
    direction 0.984968 0.0534808 0.16425
    length 10.8596
    axis -30.0462 -7.70601 1.87451 xyz
    dof rx ry rz
  end
  begin
    id 15
    name LeftHand
    direction 0.975871 0.0289682 0.216418
    length 6.62295
    axis -20.1348 -6.98077 1.86072 xyz
    dof rx ry rz
  end
  begin
    id 16
    name RightShoulderDummy
    direction -0.998877 -0.0405946 -0.0244307
    length 3.5433
    axis -0.00349562 0.000650293 0.0196666 xyz
  end
  begin
    id 17
    name RightShoulder
    direction -0.998933 -0.0249743 -0.0388558
    length 4.05031
    axis -0.0205316 -4.02113 1.41395 xyz
    dof rx ry rz
  end
  begin
    id 18
    name RightArm
    direction -0.997559 0.068664 0.0127103
    length 12.9638
    axis -67.3882 1.84188 -6.15987 xyz
    dof rx ry rz
  end
  begin
    id 19
    name RightForeArm
    direction -0.991508 0.0912848 0.0926241
    length 10.8312
    axis -22.1975 3.41087 -4.28711 xyz
    dof rx ry rz
  end
  begin
    id 20
    name RightHand
    direction -0.989262 0.0600788 0.133232
    length 6.57864
    axis -12.2911 2.17515 -4.39675 xyz
    dof rx ry rz
  end
  begin
    id 21
    name LeftUpLegDummy
    direction 0.718183 -0.695806 0.00816078
    length 4.904
    axis 0 0 0 xyz
  end
  begin
    id 22
    name LeftUpLeg
    direction 0.0831398 -0.99469 0.0606531
    length 17.4976
    axis -1.71016 2.29552 4.63832 xyz
    dof rx ry rz
  end
  begin
    id 23
    name LeftLeg
    direction 0.0498442 -0.991778 -0.117862
    length 16.5821
    axis 5.13757 15.5727 5.13348 xyz
    dof rx ry rz
  end
  begin
    id 24
    name LeftFoot
    direction 0.269026 -0.433896 0.85986
    length 3.77069
    axis -0.576502 15.6961 4.10267 xyz
    dof rx ry rz
  end
  begin
    id 25
    name LeftToes
    direction 0.277311 0.0251143 0.960452
    length 3.85048
    axis -0.576502 15.6961 4.10267 xyz
    dof rx ry rz
  end
:hierarchy
  begin
    root RightUpLegDummy SpineDummy LeftUpLegDummy
    RightUpLegDummy RightUpLeg
    RightUpLeg RightLeg
    RightLeg RightFoot
    RightFoot RightToes
    SpineDummy Spine
    Spine Spine1
    Spine1 HEadDummy LeftShoulder1Dummy RightShoulderDummy
    HEadDummy HEad
    LeftShoulder1Dummy LeftShoulder1
    LeftShoulder1 LeftArm
    LeftArm LeftForeArm
    LeftForeArm LeftHand
    RightShoulderDummy RightShoulder
    RightShoulder RightArm
    RightArm RightForeArm
    RightForeArm RightHand
    LeftUpLegDummy LeftUpLeg
    LeftUpLeg LeftLeg
    LeftLeg LeftFoot
    LeftFoot LeftToes
  end

:SAMPLES-PER-SECOND 30
:FULLY-SPECIFIED
:DEGREES
62
root  -1.40302 38.5916 54.6212 178.455 3.04747 179.88
RightUpLeg  -18.6527 2.13585 2.07774
RightLeg  -2.07904 -7.75023 3.12997
RightFoot  4.54507 -0.715523 4.47857
RightToes  -5.82073e-011 -3.18055e-015 -2.98177e-016
Spine  1.28442 -2.0687 -6.54415
Spine1  12.3143 -4.35887 8.97454
HEad  -3.94302 5.00628 -1.6612
LeftShoulder1  -3.88251e-019 9.70628e-020 -3.87848e-018
LeftArm  -3.8581 36.374 -66.0748
LeftForeArm  -17.4525 -28.3614 4.95692
LeftHand  -0.966039 -5.30973 11.1086
RightShoulder  7.40627 10.3998 35.2046
RightArm  13.7375 -51.2499 4.32792
RightForeArm  15.7757 14.5963 -6.05222
RightHand  -0.748849 1.1777 -13.0033
LeftUpLeg  7.45687 -6.01721 -9.88106
LeftLeg  18.0894 6.75419 8.38525
LeftFoot  -22.2393 -0.0970596 -0.476775
LeftToes  -3.44176e-011 4.05998e-011 -5.21293e-012
63
root  -1.1126 38.3472 53.3145 178.085 2.73428 -178.915
RightUpLeg  -19.6918 2.71514 3.84729
RightLeg  3.55353 -7.94665 0.765684
RightFoot  7.26782 0.15239 -0.980516
RightToes  -5.82073e-011 -3.18055e-015 -2.98177e-016
Spine  1.04033 -2.24637 -5.30831
Spine1  13.3638 -4.73096 10.0197
HEad  -4.74055 4.99504 -1.62527
LeftShoulder1  -3.88251e-019 9.70628e-020 -3.87848e-018
LeftArm  -3.51182 38.0272 -66.5118
LeftForeArm  -17.9748 -29.7059 5.56632
LeftHand  -0.952872 -5.39591 10.8738
RightShoulder  7.4713 10.4201 35.49
RightArm  12.535 -51.2285 3.67348
RightForeArm  17.7104 13.1467 -5.71348
RightHand  -0.663122 0.726507 -12.3391
LeftUpLeg  8.83426 -4.29126 -7.52164
LeftLeg  20.6254 4.16002 8.36337
LeftFoot  -23.4406 -0.210667 -1.5924
LeftToes  -3.44176e-011 4.05998e-011 -5.21293e-012
64
root  -0.79297 38.1073 51.9599 177.719 2.46693 -176.91
RightUpLeg  -20.6859 3.3785 6.27193
RightLeg  10.0931 -7.77413 -1.71727
RightFoot  9.31947 1.02204 -5.40329
RightToes  -5.82073e-011 -3.18055e-015 -2.98177e-016
Spine  0.656852 -2.61567 -2.99004
Spine1  14.6453 -5.18243 10.8998
HEad  -5.41346 5.19342 -1.95511
LeftShoulder1  -3.88251e-019 9.70628e-020 -3.87848e-018
LeftArm  -4.00666 40.8911 -67.1119
LeftForeArm  -17.2908 -30.8997 5.89582
LeftHand  -0.980063 -5.46948 11.1002
RightShoulder  7.5357 10.4477 35.7552
RightArm  10.2873 -50.68 4.39277
RightForeArm  19.2939 10.7954 -5.48517
RightHand  -0.562239 0.0813867 -11.6437
LeftUpLeg  9.00601 -1.49796 -3.45827
LeftLeg  25.6432 -0.167582 7.99884
LeftFoot  -23.8231 -0.50833 -4.73088
LeftToes  -3.44176e-011 4.05998e-011 -5.21293e-012
65
root  -0.475506 37.963 50.6378 177.619 1.89856 -174.45
RightUpLeg  -21.1268 3.75045 8.88419
RightLeg  15.5575 -7.92084 -3.50762
RightFoot  6.85625 1.14462 -6.6252
RightToes  -5.82073e-011 -3.18055e-015 -2.98177e-016
Spine  0.727891 -3.10665 -0.100392
Spine1  14.7934 -5.59877 11.7695
HEad  -4.9743 5.33515 -2.35657
LeftShoulder1  -3.88251e-019 9.70628e-020 -3.87848e-018
LeftArm  -5.17814 44.4932 -68.5835
LeftForeArm  -16.3002 -30.6345 5.90149
LeftHand  -0.974578 -5.04464 11.4914
RightShoulder  7.51016 10.4297 35.6656
RightArm  8.29127 -50.4344 5.7089
RightForeArm  19.3547 8.50836 -5.53873
RightHand  -0.45876 -0.608042 -10.8036
LeftUpLeg  6.64206 0.516386 1.25816
LeftLeg  34.2314 -4.37363 7.76778
LeftFoot  -21.1564 -0.700813 -9.44354
LeftToes  -3.44176e-011 4.05998e-011 -5.21293e-012
66
root  -0.172092 37.9498 49.3475 177.632 1.02979 -172.437
RightUpLeg  -20.4392 3.28381 11.0366
RightLeg  19.0617 -8.28636 -4.38135
RightFoot  1.87403 0.780699 -5.98522
RightToes  -5.82073e-011 -3.18055e-015 -2.98177e-016
Spine  1.54426 -3.34713 2.15547
Spine1  13.2834 -5.69346 12.6014
HEad  -3.44114 4.96774 -2.37078
LeftShoulder1  -3.88251e-019 9.70628e-020 -3.87848e-018
LeftArm  -7.92923 47.9277 -71.1624
LeftForeArm  -15.4194 -28.4733 5.02539
LeftHand  -0.877488 -4.02314 11.4964
RightShoulder  7.40099 10.3742 35.2347
RightArm  7.0332 -50.8112 6.84255
RightForeArm  18.0494 7.47977 -5.64228
RightHand  -0.386702 -1.09987 -10.0916
LeftUpLeg  1.54932 0.663998 4.72946
LeftLeg  45.4648 -6.4156 8.92236
LeftFoot  -12.3458 0.0134917 -11.6025
LeftToes  -3.44176e-011 4.05998e-011 -5.21293e-012
67
root  0.11015 37.9895 48.1041 177.333 -0.00686646 -171.335
RightUpLeg  -18.6758 2.74391 12.3219
RightLeg  20.839 -8.94199 -4.8409
RightFoot  -1.66331 0.513488 -5.10521
RightToes  -5.82073e-011 -3.18055e-015 -2.98177e-016
Spine  2.51218 -3.23517 3.69476
Spine1  11.9295 -5.35268 13.0475
HEad  -2.26774 3.8009 -1.81963
LeftShoulder1  -3.88251e-019 9.70628e-020 -3.87848e-018
LeftArm  -14.3809 50.2421 -73.9304
LeftForeArm  -12.6345 -25.1232 2.22232
LeftHand  -0.745148 -2.99327 11.0162
RightShoulder  7.36434 10.3755 35.0447
RightArm  6.58359 -51.0686 7.87357
RightForeArm  15.8952 8.05371 -5.63609
RightHand  -0.366306 -1.26288 -9.90874
LeftUpLeg  -5.00631 -0.367954 6.40161
LeftLeg  56.374 -7.1076 11.7675
LeftFoot  1.75346 1.15735 -9.08118
LeftToes  -3.44176e-011 4.05998e-011 -5.21293e-012
68
root  0.343678 38.0032 46.9168 176.644 -0.833832 -170.871
RightUpLeg  -16.6408 2.55033 13.1089
RightLeg  22.2785 -9.47053 -5.67246
RightFoot  -3.71775 0.374044 -4.43612
RightToes  -5.82073e-011 -3.18055e-015 -2.98177e-016
Spine  2.87035 -2.85781 5.60468
Spine1  12.4221 -4.52835 12.4982
HEad  -2.57714 2.10245 -0.917309
LeftShoulder1  -3.88251e-019 9.70628e-020 -3.87848e-018
LeftArm  -22.7899 51.2239 -75.7359
LeftForeArm  -8.18804 -20.905 -1.24336
LeftHand  -0.665289 -2.54543 10.4266
RightShoulder  7.50624 10.4757 35.5426
RightArm  6.35684 -50.3191 9.36391
RightForeArm  14.0777 9.511 -5.50993
RightHand  -0.400699 -1.08334 -10.4117
LeftUpLeg  -11.1605 -1.21077 6.88035
LeftLeg  64.4036 -7.4691 15.7208
LeftFoot  13.6163 1.29395 -5.2256
LeftToes  -3.44176e-011 4.05998e-011 -5.21293e-012
69
root  0.526983 38.0898 45.6943 175.963 -0.895935 -170.967
RightUpLeg  -14.2266 1.99592 13.5766
RightLeg  23.0697 -8.83331 -6.24573
RightFoot  -6.06751 0.254174 -3.83436
RightToes  -5.82073e-011 -3.18055e-015 -2.98177e-016
Spine  2.44526 -2.1504 7.87695
Spine1  13.8862 -3.06027 10.4524
HEad  -3.74579 0.508194 0.0182673
LeftShoulder1  -3.88251e-019 9.70628e-020 -3.87848e-018
LeftArm  -28.6464 51.6703 -76.5179
LeftForeArm  -5.13052 -16.1887 -3.06389
LeftHand  -0.627955 -2.27491 10.2057
RightShoulder  7.70928 10.5874 36.3161
RightArm  5.89688 -48.6105 11.654
RightForeArm  13.4958 10.8527 -5.32255
RightHand  -0.480434 -0.651706 -11.4152
LeftUpLeg  -15.7816 -0.83946 6.39458
LeftLeg  68.856 -7.27202 20.7896
LeftFoot  16.7331 0.684059 -2.31953
LeftToes  -3.44176e-011 4.05998e-011 -5.21293e-012
70
root  0.66583 38.2172 44.4372 175.715 -0.0706024 -171.42
RightUpLeg  -11.7569 1.45135 13.6388
RightLeg  23.2119 -7.49461 -6.17557
RightFoot  -8.74025 0.148867 -3.20187
RightToes  -5.82073e-011 -3.18055e-015 -2.98177e-016
Spine  1.85682 -1.19241 10.2359
Spine1  14.5478 -1.10262 7.34225
HEad  -4.37168 -0.588281 0.81364
LeftShoulder1  -3.88251e-019 9.70628e-020 -3.87848e-018
LeftArm  -31.0056 52.8051 -76.8707
LeftForeArm  -4.19132 -12.151 -3.12102
LeftHand  -0.585933 -1.495 10.6472
RightShoulder  7.79845 10.626 36.6747
RightArm  5.44129 -46.6598 14.474
RightForeArm  13.8295 11.8499 -5.11081
RightHand  -0.580767 -0.118759 -12.4731
LeftUpLeg  -19.3175 0.449874 5.28124
LeftLeg  70.5283 -6.8191 25.0482
LeftFoot  12.1584 0.206705 -0.792316
LeftToes  -3.44176e-011 4.05998e-011 -5.21293e-012
71
root  0.771693 38.2786 43.2023 175.857 1.28482 -171.918
RightUpLeg  -9.80156 0.987048 13.5446
RightLeg  23.4565 -5.71143 -5.93976
RightFoot  -10.8191 0.0874987 -2.71971
RightToes  -5.82073e-011 -3.18055e-015 -2.98177e-016
Spine  1.56594 -0.175143 12.5235
Spine1  14.0447 0.856699 4.23875
HEad  -4.03468 -1.2107 1.39453
LeftShoulder1  -3.88251e-019 9.70628e-020 -3.87848e-018
LeftArm  -32.8035 55.1925 -77.0567
LeftForeArm  -3.08463 -9.60544 -2.76507
LeftHand  -0.533628 -0.541014 11.3035
RightShoulder  7.74758 10.5957 36.4886
RightArm  5.51301 -44.8566 17.3791
RightForeArm  13.961 13.0606 -5.03283
RightHand  -0.686598 0.529314 -13.1878
LeftUpLeg  -22.5296 1.84303 4.13947
LeftLeg  70.2012 -6.3951 26.122
LeftFoot  6.55054 0.114823 -0.556249
LeftToes  -3.44176e-011 4.05998e-011 -5.21293e-012
72
root  0.869699 38.3421 41.9847 176.039 2.84315 -172.584
RightUpLeg  -7.96706 0.607068 13.171
RightLeg  23.6211 -3.75393 -5.68224
RightFoot  -12.3387 0.0561026 -2.59556
RightToes  -5.82073e-011 -3.18055e-015 -2.98177e-016
Spine  1.44542 0.864525 14.1027
Spine1  13.1726 2.53317 1.62503
HEad  -3.39548 -1.49214 1.68169
LeftShoulder1  -3.88251e-019 9.70628e-020 -3.87848e-018
LeftArm  -33.8192 58.2751 -77.0319
LeftForeArm  -2.22193 -8.46251 -2.51379
LeftHand  -0.502576 -0.225313 11.2854
RightShoulder  7.66372 10.5577 36.1542
RightArm  6.89993 -42.9169 20.0638
RightForeArm  12.591 14.9111 -5.41607
RightHand  -0.798875 1.31848 -13.5862
LeftUpLeg  -25.3248 3.17848 2.92229
LeftLeg  67.7656 -5.57421 24.7589
LeftFoot  4.12594 0.00732417 0.0259694
LeftToes  -3.44176e-011 4.05998e-011 -5.21293e-012
73
root  0.957175 38.4416 40.7939 176.153 4.37677 -173.473
RightUpLeg  -5.98306 0.180457 12.3507
RightLeg  23.4875 -1.83626 -5.25428
RightFoot  -14.0741 0.0239295 -2.57804
RightToes  -5.82073e-011 -3.18055e-015 -2.98177e-016
Spine  1.34305 1.82042 14.8836
Spine1  12.4697 3.8631 -0.639274
HEad  -3.08757 -1.46408 1.64888
LeftShoulder1  -3.88251e-019 9.70628e-020 -3.87848e-018
LeftArm  -33.8127 61.2677 -76.5999
LeftForeArm  -1.20154 -7.84882 -2.54456
LeftHand  -0.480332 -0.419889 10.4121
RightShoulder  7.60988 10.5349 35.9344
RightArm  9.94908 -40.5059 22.5542
RightForeArm  9.11835 17.071 -6.52741
RightHand  -0.884869 1.83344 -14.0012
LeftUpLeg  -27.1943 4.45924 1.53359
LeftLeg  62.8141 -3.7707 23.0339
LeftFoot  2.6242 -0.00561511 0.0704212
LeftToes  -3.44176e-011 4.05998e-011 -5.21293e-012
